<?xml version="1.0" encoding="UTF-8" standalone="no"?>
<!-- Creator: CorelDRAW X6 -->

<svg
   xmlns:dc="http://purl.org/dc/elements/1.1/"
   xmlns:cc="http://creativecommons.org/ns#"
   xmlns:rdf="http://www.w3.org/1999/02/22-rdf-syntax-ns#"
   xmlns:svg="http://www.w3.org/2000/svg"
   xmlns="http://www.w3.org/2000/svg"
   xmlns:sodipodi="http://sodipodi.sourceforge.net/DTD/sodipodi-0.dtd"
   xmlns:inkscape="http://www.inkscape.org/namespaces/inkscape"
   xml:space="preserve"
   width="512"
   height="512"
   version="1.1"
   viewBox="0 0 56888 56888"
   id="svg2"
   inkscape:version="0.91 r13725"
   sodipodi:docname="logo_ugal_b.svg"
   style="clip-rule:evenodd;fill-rule:evenodd;image-rendering:optimizeQuality;shape-rendering:geometricPrecision;text-rendering:geometricPrecision"><metadata
   id="metadata12"><rdf:RDF><cc:Work
       rdf:about=""><dc:format>image/svg+xml</dc:format><dc:type
         rdf:resource="http://purl.org/dc/dcmitype/StillImage" /><dc:title></dc:title></cc:Work></rdf:RDF></metadata><defs
   id="defs10"><filter
   style="color-interpolation-filters:sRGB"
   inkscape:label="Drop Shadow"
   id="filter4344"><feFlood
     flood-opacity="0.156863"
     flood-color="rgb(0,0,0)"
     result="flood"
     id="feFlood4346" /><feComposite
     in="flood"
     in2="SourceGraphic"
     operator="in"
     result="composite1"
     id="feComposite4348" /><feGaussianBlur
     in="composite1"
     stdDeviation="3"
     result="blur"
     id="feGaussianBlur4350" /><feOffset
     dx="1"
     dy="1"
     result="offset"
     id="feOffset4352" /><feComposite
     in="SourceGraphic"
     in2="offset"
     operator="over"
     result="composite2"
     id="feComposite4354" /></filter>
  
  
 </defs><sodipodi:namedview
   pagecolor="#ffffff"
   bordercolor="#343a40"
   borderopacity="1"
   objecttolerance="10"
   gridtolerance="10"
   guidetolerance="10"
   inkscape:pageopacity="0"
   inkscape:pageshadow="2"
   inkscape:window-width="2150"
   inkscape:window-height="1267"
   id="namedview8"
   showgrid="false"
   units="px"
   showborder="true"
   inkscape:zoom="1.4142"
   inkscape:cx="287.81"
   inkscape:cy="249.63"
   inkscape:window-x="1"
   inkscape:window-y="0"
   inkscape:window-maximized="0"
   inkscape:current-layer="svg2" />
 <path
   id="path6"
   style="fill:#343a40"
   d="M 45203,24628 43750,24628 43750,40005 44926,40008 44929,38640 48968,38640 48996,24631 47586,24628 47578,36262 45197,36267 45205,24625 Z M 46249,42503 10702,42478 10059,43494 46860,43473 46249,42503 Z M 11158,41756 45786,41775 45138,40743 11816,40718 11158,41759 Z M 48447,46017 8509.7,45993 7787.1,47165 49161,47184 48443,46017 Z M 8956.7,45268 47999,45287 47329,44196 9618.3,44196 8956.7,45268 Z M 49611,47913 7346,47888 6668.9,48988 50282,49007 49611,47913 Z M 46366,9861.1 43772,9861.1 C 43772,8307.9 44935,7449.8 46366,7449.8 47795,7449.8 48983,8273.2 48983,9861.1 L 46366,9861.1 Z M 10587,9945 7990.8,9945 C 7990.8,8390.6 9156.9,7534.9 10587,7534.9 12015,7534.9 13203,8357 13203,9945 L 10587,9945 Z M 13955,32387 13955,29538 15145,29538 C 15150,28604 15159,27669 15166,26734 15163,26000 15411,25456 16092,25277 16141,19782 23730,19938 23657,25416 23981,25419 24285,25410 24611,25414 24568,19730 32414,19891 32262,25379 32586,25379 32855,25379 33178,25379 33144,22769 34686,21151 37029,21145 39309,21139 40854,22893 40790,25363 41230,25484 41708,25733 41698,26673 L 41714,29690 43016,29697 43034,39977 40094,39970 40106,36047 40504,35811 42415,35798 42427,32280 40209,32286 C 40205,30454 40205,28623 40202,26788 40063,26223 39703,25875 39163,25717 39163,25178 39154,24942 39154,24401 39044,23644 38403,22554 36953,22540 35473,22523 34774,23768 34758,24397 34758,24966 34751,25149 34751,25713 34199,25900 33870,26285 33778,26906 L 33765,32298 31713,32305 C 31707,30550 31704,28934 31698,27183 31701,26428 31278,25816 30618,25701 30607,25152 30599,24954 30589,24405 30577,23225 29439,22560 28344,22560 27172,22564 26259,23499 26253,24426 26247,24966 26240,25178 26235,25717 25466,25959 25230,26568 25232,27304 L 25238,32254 23134,32251 C 23128,30575 23122,28901 23116,27226 23096,26236 22640,25850 22025,25687 22025,25234 22025,24858 22025,24401 21966,23253 20904,22499 19807,22504 18639,22511 17711,23370 17656,24330 17658,24777 17646,25223 17648,25671 16869,25945 16684,26539 16640,27226 L 16646,32272 14564,32272 14564,35761 16404,35761 16818,36020 16830,39958 13958,39952 13962,32391 Z M 34684,39940 34680,35557 33839,35085 33852,33024 34528,33020 C 34526,31097 34522,29176 34519,27251 34507,26825 34597,26402 35046,26400 35202,26394 35356,26388 35512,26378 35512,25754 35515,25131 35515,24508 35531,22849 38415,22816 38396,24596 38396,25197 38396,25791 38396,26390 38565,26394 38735,26398 38901,26398 39302,26425 39489,26676 39491,27189 L 39510,33008 40125,33006 40135,35109 39374,35557 39376,39940 34686,39933 Z M 26148,39958 26144,35576 25304,35101 25316,33039 25993,33039 C 25989,31115 25986,29194 25982,27269 25970,26845 26060,26422 26511,26419 26667,26413 26821,26406 26977,26400 26977,25776 26979,25152 26979,24529 26995,22872 29880,22836 29859,24618 29859,25218 29859,25813 29859,26413 30028,26416 30198,26419 30366,26419 30766,26447 30952,26697 30956,27210 L 30975,33031 31590,33027 31598,35132 30838,35578 30841,39961 26151,39956 Z M 17552,39940 17550,35557 16709,35085 16721,33024 17398,33020 C 17394,31097 17392,29176 17388,27251 17375,26825 17466,26402 17916,26400 18071,26394 18226,26388 18382,26378 18382,25754 18384,25131 18384,24508 18400,22849 21284,22816 21265,24596 21265,25197 21265,25791 21265,26390 21432,26394 21604,26398 21771,26398 22175,26425 22357,26676 22361,27189 L 22379,33008 22993,33006 23004,35109 22243,35557 22246,39940 17556,39933 Z M 13949,18867 43030,18870 43028,28936 42446,28940 C 42440,28138 42434,27341 42427,26539 42422,25758 42050,25172 41562,25000 41450,21986 39147,20391 37058,20388 35205,20385 33326,21533 32710,23384 30919,19211 25552,19671 24127,23536 21979,18373 15514,20399 15370,24792 14995,24877 14365,25627 14397,26562 L 14397,28812 13962,28812 13949,18867 Z M 43766,23895 45175,23895 45175,22331 47530,22331 47546,23864 48996,23864 48996,21738 47562,21126 48238,20038 44594,20021 45203,21158 43747,21751 43763,23893 Z M 49015,21067 48459,20842 49015,20071 49015,21067 Z M 43735,21039 44225,20847 43735,20068 43735,21042 Z M 8010,23979 9395.4,23979 9395.4,22415 11752,22415 11766,23948 13216,23948 13216,21822 11781,21213 12459,20124 8814.1,20108 9426.5,21244 7990.8,21838 8007.6,23979 Z M 13235,21151 12757,20983 13232,20153 13232,21151 Z M 7998,21051 8454.6,20897 7998,20133 7998,21049 Z M 31542,36022 31922,35786 33562,35786 33978,36022 33978,39944 31542,39944 31542,36022 Z M 22969,36034 23348,35798 24990,35798 25406,36034 25406,39956 22969,39956 22969,36034 Z M 40888,33020 41692,33020 41692,35066 40888,35066 40888,33020 Z M 32328,33043 33131,33043 33131,35087 32328,35087 32328,33043 Z M 23757,32987 24561,32987 24561,35032 23757,35032 23757,32987 Z M 15284,33008 15967,33008 15967,34999 15284,34999 15284,33008 Z M 47407,39338 45615,39338 45613,40065 49633,46464 47404,39335 Z M 50672,43931 49605,43931 50669,47140 50672,43931 Z M 54403,43981 51451,43981 51451,49004 54403,49004 54403,43981 Z M 50796,39325 48180,39325 49446,43178 52253,43178 50796,39325 Z M 9515.2,39319 11316,39319 11291,40054 7287.3,46446 9515.2,39316 Z M 6250.7,43913 7318.5,43913 6253.1,47122 6250.7,43913 Z M 2519.1,43963 5470.5,43963 5470.5,48984 2519.1,48984 2519.1,43963 Z M 6126,39306 8742.2,39306 7475.5,43159 4670.2,43159 6126,39306 Z M 46792,23104 45886,23104 45886,35503 46792,35503 46792,23104 Z M 11778,24690 13232,24690 13232,39940 12055,39944 12052,38574 8012.4,38574 7986,24692 9395.4,24690 9403.7,36221 11785,36203 11777,24686 Z M 10167,23116 11074,23116 11074,35473 10167,35473 10167,23116 Z M 43763,16067 48927,16067 48927,19314 43763,19314 43763,16067 Z M 13945,16085 43040,16085 43040,18100 13945,18100 13945,16085 Z M 8025.5,16117 13191,16117 13191,19364 8025.5,19364 8025.5,16117 Z M 6688.1,14816 50340,14806 49995,15356 7006.9,15356 6688.1,14816 Z M 43822,10483 48941,10483 48941,14041 43822,14041 43822,10483 Z M 39143,12016 43024,12016 43024,14031 39143,14031 39143,12016 Z M 31096,12038 33700,12038 33700,14033 31096,14033 31096,12038 Z M 26563,12799 30333,12799 30333,14025 26563,14025 26563,12799 Z M 23221,12020 25824,12020 25824,14015 23221,14015 23221,12020 Z M 34401,12811 38415,12811 38415,14037 34401,14037 34401,12811 Z M 18515,12692 22432,12692 22432,14037 18515,14037 18515,12692 Z M 13967,12010 17695,12010 17695,14025 13967,14025 13967,12010 Z M 8025.5,10538 13191,10538 13191,14055 8025.5,14055 8025.5,10538 Z M 7305.3,9805.9 C 7308.9,5846.1 13937,5836.3 13940,9805.9 L 13940,11272 18499,11284 18499,11944 22464,11944 22464,11284 26560,11272 26560,11950 30337,11950 30345,11268 34401,11268 34401,11954 38421,11962 38433,11284 43071,11284 C 43071,10761 43071,10241 43071,9718.5 43065,5814.5 49738,5836.3 49688,9718.5 L 49685,13453 49685,14055 51510,14066 50396,16073 49682,16073 49672,38617 51237,38617 52994,43263 55073,43263 55073,49736 1780.4,49705 1780.4,43214 3844.5,43214 5583.1,38577 7289.7,38592 7295.7,16114 6622.2,16117 5480.1,14062 7293.3,14050 7293.3,10269 C 7293.3,10113 7293.3,9960.5 7293.3,9805.9 Z M 9875.9,51984 C 9963.4,51959 10031,51936 10087,51924 10143,51911 10183,51905 10208,51905 10267,51905 10317,51930 10361,51977 10403,52026 10448,52104 10487,52206 10540,52346 10583,52492 10618,52650 10653,52809 10668,52930 10668,53020 10668,53094 10649,53153 10608,53201 10569,53246 10522,53271 10466,53271 10379,53271 10267,53187 10141,53023 10112,52986 10090,52957 10075,52943 10063,52927 10044,52906 10022,52877 9872.3,52697 9742.9,52570 9631.4,52496 9506.8,52417 9366.6,52358 9208.4,52321 9050.2,52280 8875.2,52262 8683.5,52262 8214.9,52262 7849.4,52420 7588.1,52740 7324.5,53060 7193.8,53507 7193.8,54087 7193.8,54771 7361.6,55335 7703.2,55772 8041.1,56211 8469,56432 8984.3,56432 9282.7,56432 9512.8,56344 9673.4,56170 9838.8,55997 9919.1,55754 9919.1,55444 9919.1,55331 9901.1,55252 9863.9,55198 9826.8,55146 9758.5,55106 9655.4,55081 9612.3,55069 9552.3,55053 9478,55037 9279.1,54997 9180.8,54925 9180.8,54829 9180.8,54721 9249.1,54649 9382.2,54609 9518.8,54572 9881.9,54550 10475,54550 10848,54550 11084,54568 11188,54609 11295,54646 11345,54718 11345,54823 11345,54878 11328,54923 11301,54954 11272,54985 11211,55016 11121,55044 11109,55046 11089,55053 11065,55062 10951,55095 10875,55146 10844,55208 10823,55255 10794,55352 10757,55500 10748,55538 10742,55565 10733,55587 10680,55798 10631,55959 10581,56067 10532,56177 10475,56273 10403,56360 10245,56553 10034,56698 9770.5,56801 9506.8,56904 9202.4,56953 8853.7,56953 8081.9,56953 7451.5,56707 6969.7,56217 6489.2,55726 6247.1,55083 6247.1,54289 6247.1,53559 6473.6,52964 6930.2,52504 7383.2,52045 7972.8,51815 8699.1,51815 8875.2,51815 9058.6,51831 9255.1,51860 9448.1,51886 9655.4,51930 9875.9,51985 Z M 14244,54817 C 14123,54479 14003,54162 13886,53870 13768,53579 13650,53312 13538,53064 L 13448,53064 C 13327,53346 13210,53632 13095,53923 12980,54214 12865,54516 12753,54823 12878,54814 13005,54808 13130,54804 13253,54800 13380,54799 13513,54799 13638,54799 13762,54799 13884,54800 14008,54804 14129,54811 14247,54817 Z M 12524,54107 C 12551,54035 12592,53933 12648,53802 12977,52982 13181,52401 13263,52057 13284,51952 13318,51885 13368,51856 13417,51827 13505,51812 13632,51812 13719,51812 13784,51827 13834,51860 13884,51889 13930,51948 13978,52036 14111,52293 14284,52672 14505,53172 14722,53675 14949,54214 15178,54800 15219,54899 15271,55034 15340,55208 15598,55872 15802,56245 15957,56325 15979,56337 16020,56354 16078,56373 16225,56415 16295,56484 16295,56577 16295,56682 16228,56754 16092,56793 15955,56834 15678,56853 15271,56853 14868,56853 14597,56831 14461,56793 14324,56754 14260,56682 14260,56577 14260,56494 14343,56422 14507,56362 14532,56354 14548,56348 14560,56344 14626,56322 14669,56295 14693,56264 14718,56233 14731,56189 14731,56133 14731,56071 14716,55975 14679,55844 14641,55714 14601,55593 14548,55481 14519,55428 14498,55390 14483,55378 14470,55364 14452,55353 14437,55352 14393,55339 14300,55331 14163,55327 14027,55319 13849,55317 13641,55317 L 13474,55317 C 13130,55317 12900,55323 12785,55339 12669,55353 12595,55378 12564,55413 12511,55472 12459,55569 12408,55702 12359,55835 12334,55944 12334,56028 12334,56100 12349,56158 12384,56207 12418,56258 12471,56297 12539,56325 12566,56337 12607,56354 12657,56373 12800,56422 12871,56494 12871,56584 12871,56689 12812,56760 12698,56801 12580,56841 12347,56859 11998,56859 11648,56859 11416,56838 11301,56801 11186,56760 11127,56689 11127,56584 11127,56496 11195,56424 11332,56369 11391,56344 11434,56322 11465,56307 11640,56201 11803,55950 11953,55559 11986,55475 12012,55403 12034,55353 L 12527,54111 Z M 18763,56316 C 18981,56316 19148,56288 19269,56229 19387,56174 19501,56053 19611,55872 19641,55823 19676,55754 19719,55665 19800,55488 19891,55401 19983,55401 20042,55401 20086,55428 20116,55488 20148,55544 20164,55627 20164,55729 20164,55869 20148,56020 20116,56182 20090,56344 20045,56499 19992,56642 19955,56738 19915,56807 19877,56847 19837,56888 19788,56906 19722,56906 19493,56850 19309,56826 19182,56826 L 17162,56826 C 16832,56826 16627,56809 16545,56779 16461,56748 16420,56689 16420,56602 16420,56499 16491,56418 16634,56362 16705,56336 16752,56313 16783,56288 16832,56254 16863,56108 16881,55850 16901,55596 16910,55087 16910,54327 16910,53787 16901,53352 16885,53023 16869,52694 16844,52511 16818,52471 16793,52434 16721,52393 16600,52342 16479,52293 16420,52221 16420,52129 16420,52039 16469,51977 16572,51943 16674,51909 16932,51893 17345,51893 17757,51893 18015,51909 18118,51943 18220,51977 18270,52039 18270,52129 18270,52225 18198,52297 18052,52350 17978,52377 17925,52401 17898,52426 17857,52461 17826,52594 17804,52828 17786,53060 17777,53410 17777,53886 17777,54469 17783,54948 17791,55327 17802,55705 17816,55934 17839,56016 17865,56130 17935,56207 18037,56252 18142,56291 18341,56313 18632,56313 L 18763,56313 Z M 23419,54817 C 23299,54479 23178,54162 23063,53870 22944,53579 22827,53312 22714,53064 L 22624,53064 C 22503,53346 22386,53632 22271,53923 22157,54214 22041,54516 21929,54823 22054,54814 22181,54808 22304,54804 22429,54800 22556,54799 22690,54799 22814,54799 22938,54799 23059,54800 23183,54804 23304,54811 23422,54817 Z M 21700,54107 C 21727,54035 21767,53933 21824,53802 22153,52982 22357,52401 22438,52057 22460,51952 22494,51885 22544,51856 22593,51827 22681,51812 22809,51812 22895,51812 22960,51827 23009,51860 23059,51889 23105,51948 23153,52036 23286,52293 23460,52672 23680,53172 23901,53675 24125,54214 24357,54800 24397,54899 24449,55034 24519,55208 24777,55872 24980,56245 25135,56325 25158,56337 25197,56354 25256,56373 25403,56415 25474,56484 25474,56577 25474,56682 25406,56754 25269,56793 25133,56834 24857,56853 24449,56853 24047,56853 23776,56831 23639,56793 23503,56754 23438,56682 23438,56577 23438,56494 23522,56422 23686,56362 23711,56354 23727,56348 23739,56344 23805,56322 23848,56295 23872,56264 23897,56233 23910,56189 23910,56133 23910,56071 23891,55975 23856,55844 23819,55714 23780,55593 23727,55481 23698,55428 23676,55390 23661,55378 23649,55364 23631,55353 23615,55352 23572,55339 23478,55331 23341,55327 23204,55319 23028,55317 22821,55317 L 22652,55317 C 22308,55317 22079,55323 21963,55339 21849,55353 21775,55378 21743,55413 21689,55472 21638,55569 21588,55702 21538,55835 21513,55944 21513,56028 21513,56100 21529,56158 21564,56207 21597,56258 21650,56297 21718,56325 21746,56337 21787,56354 21837,56373 21979,56422 22050,56494 22050,56584 22050,56689 21991,56760 21876,56801 21759,56841 21526,56859 21178,56859 20828,56859 20595,56838 20480,56801 20365,56760 20306,56689 20306,56584 20306,56496 20374,56424 20510,56369 20570,56344 20613,56322 20642,56307 20816,56201 20979,55950 21129,55559 21162,55475 21187,55403 21210,55353 L 21703,54111 Z M 28057,51893 C 28332,51893 28565,51878 28749,51849 28771,51846 28779,51846 28787,51846 28897,51846 28992,51940 29059,52122 29131,52309 29165,52551 29165,52852 29165,52992 29150,53090 29119,53153 29084,53215 29033,53246 28959,53246 28920,53246 28882,53234 28842,53205 28805,53178 28771,53144 28746,53098 28721,53047 28684,52968 28643,52861 28602,52752 28565,52678 28535,52635 28473,52545 28398,52479 28307,52442 28219,52405 28094,52387 27936,52387 L 27792,52387 C 27700,52387 27634,52396 27594,52414 27555,52437 27529,52476 27520,52541 27508,52650 27497,52833 27492,53094 27483,53352 27479,53654 27479,53994 27479,54705 27485,55249 27501,55627 27514,56005 27535,56215 27559,56252 27585,56285 27659,56325 27783,56373 27905,56418 27967,56490 27967,56584 27967,56686 27901,56754 27772,56793 27641,56834 27398,56853 27042,56853 26685,56853 26442,56831 26313,56793 26185,56754 26119,56686 26119,56584 26119,56490 26181,56422 26306,56373 26430,56325 26505,56285 26526,56252 26550,56211 26573,56003 26589,55627 26604,55249 26609,54705 26609,53994 26609,53650 26608,53349 26597,53090 26589,52833 26579,52648 26567,52541 26560,52479 26536,52438 26495,52417 26454,52399 26390,52389 26296,52389 L 26144,52389 C 25989,52389 25868,52408 25779,52446 25691,52483 25613,52549 25552,52637 25521,52682 25487,52756 25443,52865 25403,52969 25369,53051 25343,53101 25316,53144 25285,53181 25244,53205 25204,53234 25164,53246 25121,53246 25049,53246 24998,53215 24972,53156 24940,53098 24924,52994 24924,52855 24924,52555 24959,52313 25031,52126 25098,51940 25191,51849 25300,51849 25306,51849 25318,51849 25341,51852 25521,51881 25750,51897 26027,51897 L 28053,51897 Z M 29959,54327 C 29959,53799 29950,53367 29931,53032 29913,52697 29888,52511 29857,52467 29835,52434 29763,52393 29640,52342 29519,52293 29457,52221 29457,52129 29457,52039 29506,51977 29609,51943 29711,51909 29968,51893 30382,51893 30792,51893 31046,51909 31147,51943 31251,51977 31300,52039 31300,52132 31300,52229 31229,52299 31089,52352 31018,52380 30964,52405 30938,52430 30893,52461 30863,52594 30844,52824 30825,53053 30816,53429 30816,53952 30816,54649 30825,55195 30841,55596 30856,55993 30878,56215 30905,56258 30927,56291 31000,56332 31120,56378 31241,56424 31300,56496 31300,56590 31300,56692 31237,56760 31110,56801 30987,56841 30742,56859 30375,56859 30017,56859 29776,56838 29646,56801 29519,56760 29453,56692 29453,56590 29453,56496 29525,56422 29667,56369 29742,56340 29792,56316 29820,56291 29869,56254 29904,56100 29921,55825 29943,55552 29954,55057 29954,54329 Z M 32402,56822 C 32073,56822 31865,56807 31781,56775 31698,56744 31657,56686 31657,56598 31657,56496 31729,56415 31874,56360 31947,56332 31996,56311 32024,56285 32073,56252 32107,56086 32125,55798 32147,55506 32157,55016 32157,54327 32157,53833 32147,53410 32125,53060 32107,52709 32082,52514 32055,52471 32033,52438 31961,52399 31837,52346 31716,52293 31653,52221 31653,52126 31653,52039 31707,51977 31811,51946 31918,51911 32166,51897 32560,51897 L 34671,51897 C 34784,51897 34895,51885 35010,51860 35124,51834 35183,51822 35190,51822 35223,51822 35252,51827 35276,51844 35301,51856 35323,51878 35338,51905 35389,51985 35432,52106 35475,52266 35515,52424 35537,52557 35537,52670 35537,52772 35518,52849 35477,52906 35440,52961 35385,52988 35317,52988 35235,52988 35149,52911 35057,52750 35016,52682 34981,52629 34954,52588 34907,52516 34829,52464 34727,52426 34625,52389 34497,52371 34345,52371 L 33870,52371 C 33646,52371 33480,52383 33367,52408 33256,52434 33178,52474 33134,52526 33097,52574 33070,52670 33051,52818 33031,52968 33027,53187 33027,53480 L 33027,53755 C 33027,53867 33035,53933 33054,53960 33072,53986 33115,54001 33181,54001 L 33796,54001 C 33978,54001 34110,53976 34184,53923 34259,53870 34305,53775 34323,53632 34327,53613 34331,53584 34335,53547 34370,53322 34444,53205 34559,53205 34662,53205 34730,53268 34767,53392 34804,53517 34823,53799 34823,54243 34823,54681 34804,54962 34767,55083 34730,55206 34662,55270 34559,55270 34442,55270 34368,55155 34335,54929 34333,54899 34327,54870 34323,54848 34302,54708 34259,54612 34184,54560 34110,54506 33982,54479 33796,54479 L 33188,54479 C 33123,54479 33082,54497 33057,54538 33035,54575 33023,54667 33023,54814 L 33023,55136 C 33023,55438 33029,55659 33039,55801 33048,55944 33070,56049 33097,56108 33129,56182 33203,56236 33321,56270 33435,56301 33621,56316 33867,56316 L 34314,56316 C 34553,56316 34737,56285 34863,56223 34991,56161 35099,56049 35193,55883 35223,55832 35257,55754 35298,55655 35364,55481 35438,55397 35518,55397 35577,55397 35621,55426 35655,55481 35688,55538 35705,55614 35705,55714 35705,55832 35686,55975 35651,56142 35614,56313 35565,56481 35503,56648 35469,56731 35432,56797 35391,56841 35352,56885 35311,56906 35264,56906 35256,56906 35223,56900 35177,56888 35024,56847 34873,56826 34721,56826 L 32390,56826 Z M 36950,53023 C 36947,53088 36941,53165 36941,53256 36937,53346 36937,53500 36937,53718 L 36937,54048 C 36937,55053 36950,55686 36978,55941 37005,56195 37055,56322 37126,56322 37191,56322 37254,56350 37319,56399 37383,56453 37415,56512 37415,56573 37415,56672 37363,56742 37250,56785 37142,56826 36953,56847 36682,56847 36410,56847 36220,56826 36115,56785 36006,56744 35953,56672 35953,56573 35953,56487 36016,56418 36137,56369 36260,56319 36332,56282 36353,56252 36385,56207 36406,56020 36424,55696 36440,55370 36449,54911 36449,54324 36449,53805 36440,53377 36424,53039 36406,52700 36385,52511 36353,52467 36332,52434 36260,52393 36137,52340 36016,52291 35953,52221 35953,52135 35953,52045 36004,51984 36104,51946 36207,51909 36403,51893 36689,51893 36881,51893 37009,51897 37068,51905 37126,51915 37170,51930 37198,51955 37257,52008 37421,52209 37689,52557 37955,52908 38185,53201 38378,53441 L 39155,54394 C 39371,54659 39549,54874 39686,55034 39824,55195 39944,55331 40047,55440 40051,55401 40051,55352 40053,55298 40053,55245 40053,55158 40053,55044 40053,54367 40047,53795 40031,53330 40016,52861 40002,52588 39982,52514 39973,52486 39957,52461 39932,52438 39907,52414 39883,52399 39855,52389 39727,52342 39647,52303 39616,52268 39582,52235 39566,52194 39566,52141 39566,52048 39612,51985 39708,51948 39803,51915 40006,51897 40318,51897 40600,51897 40790,51915 40886,51948 40978,51984 41027,52048 41027,52141 41027,52191 41015,52229 40987,52262 40960,52293 40916,52325 40851,52350 40836,52356 40814,52365 40786,52377 40687,52414 40631,52461 40613,52514 40584,52611 40562,52883 40550,53336 40537,53790 40532,54482 40532,55413 40532,55606 40534,55823 40537,56061 40541,56301 40544,56444 40544,56487 40544,56660 40532,56767 40510,56807 40488,56847 40445,56868 40383,56868 40139,56868 39612,56354 38793,55323 38743,55264 38710,55218 38684,55183 L 37927,54234 C 37582,53793 37347,53500 37228,53352 37107,53203 37011,53094 36941,53023 Z M 43999,51952 C 44051,51911 44099,51881 44141,51862 44182,51844 44221,51834 44257,51834 44312,51834 44361,51849 44408,51886 44452,51924 44498,51984 44548,52069 44626,52209 44689,52356 44731,52504 44777,52653 44800,52787 44800,52902 44800,52980 44781,53039 44747,53082 44710,53126 44660,53147 44594,53147 44473,53147 44355,53064 44237,52899 44216,52873 44200,52849 44188,52833 44058,52660 43918,52535 43766,52455 43614,52375 43443,52334 43250,52334 42993,52334 42788,52393 42639,52511 42489,52629 42419,52793 42419,53004 42419,53190 42481,53343 42602,53467 42722,53591 43034,53758 43527,53970 43557,53982 43606,54004 43672,54032 44082,54202 44377,54373 44560,54538 44689,54653 44781,54788 44849,54944 44914,55099 44947,55270 44947,55450 44947,55920 44784,56285 44457,56547 44133,56809 43676,56940 43090,56940 42813,56940 42546,56912 42294,56856 42040,56801 41835,56726 41671,56630 41580,56577 41506,56453 41447,56254 41388,56055 41357,55832 41357,55571 41357,55466 41376,55385 41417,55329 41456,55273 41513,55245 41587,55245 41696,55245 41804,55348 41915,55552 41950,55618 41978,55665 41999,55698 42146,55953 42304,56140 42477,56254 42651,56369 42856,56428 43090,56428 43348,56428 43564,56354 43735,56207 43908,56059 43996,55879 43996,55659 43996,55339 43654,55028 42968,54730 42921,54708 42884,54696 42859,54683 42304,54439 41933,54214 41755,54011 41571,53805 41480,53541 41480,53222 41480,52811 41634,52471 41937,52206 42241,51943 42636,51809 43120,51809 43248,51809 43385,51822 43530,51846 43676,51872 43834,51905 44001,51952 Z M 45833,54324 C 45833,53795 45823,53364 45806,53029 45786,52694 45761,52508 45731,52464 45710,52430 45637,52389 45513,52340 45392,52291 45330,52219 45330,52126 45330,52036 45379,51973 45482,51940 45585,51905 45843,51889 46255,51889 46665,51889 46919,51905 47022,51940 47124,51973 47173,52036 47173,52129 47173,52225 47102,52297 46963,52350 46891,52377 46839,52401 46811,52426 46768,52458 46737,52592 46719,52821 46698,53051 46690,53426 46690,53948 46690,54646 46698,55194 46715,55593 46731,55991 46752,56211 46780,56254 46801,56288 46873,56328 46994,56375 47114,56422 47177,56494 47177,56586 47177,56689 47114,56756 46988,56797 46864,56838 46619,56856 46251,56856 45894,56856 45653,56834 45523,56797 45396,56756 45330,56689 45330,56586 45330,56494 45402,56418 45544,56366 45619,56337 45669,56313 45696,56288 45747,56252 45780,56096 45798,55823 45820,55550 45831,55053 45831,54327 Z M 50185,51952 C 50237,51911 50284,51881 50327,51862 50368,51844 50407,51834 50442,51834 50499,51834 50548,51849 50594,51886 50638,51924 50684,51984 50735,52069 50813,52209 50875,52356 50917,52504 50964,52653 50986,52787 50986,52902 50986,52980 50967,53039 50934,53082 50895,53126 50846,53147 50780,53147 50659,53147 50542,53064 50423,52899 50405,52873 50386,52849 50374,52833 50245,52660 50104,52535 49952,52455 49800,52375 49630,52334 49437,52334 49179,52334 48974,52393 48826,52511 48676,52629 48605,52793 48605,53004 48605,53190 48667,53343 48787,53467 48908,53591 49220,53758 49712,53970 49744,53982 49792,54004 49859,54032 50268,54202 50563,54373 50747,54538 50875,54653 50967,54788 51035,54944 51100,55099 51134,55270 51134,55450 51134,55920 50971,56285 50644,56547 50319,56809 49862,56940 49276,56940 48999,56940 48732,56912 48480,56856 48226,56801 48021,56726 47857,56630 47766,56577 47692,56453 47633,56254 47574,56055 47543,55832 47543,55571 47543,55466 47566,55385 47603,55329 47643,55273 47699,55245 47773,55245 47881,55245 47990,55348 48102,55552 48136,55618 48164,55665 48186,55698 48332,55953 48490,56140 48664,56254 48838,56369 49042,56428 49276,56428 49534,56428 49747,56354 49921,56207 50095,56059 50182,55879 50182,55659 50182,55339 49841,55028 49154,54730 49107,54708 49074,54696 49045,54683 48490,54439 48121,54214 47940,54011 47758,53805 47667,53541 47667,53222 47667,52811 47820,52471 48123,52206 48428,51943 48822,51809 49306,51809 49434,51809 49571,51822 49716,51846 49862,51872 50020,51905 50187,51952 Z M 5583.1,2716.9 C 5583.1,2155 5573.6,1689.4 5552,1310.7 5530.4,935.15 5505.2,724.11 5477.7,680.61 5454.9,646.57 5380.6,606.06 5253.6,556.45 5129.5,506.83 5064.3,435.41 5064.3,339.17 5064.3,249.29 5114,187.09 5213.3,152.94 5312.3,118.9 5583.1,103.32 6020.6,103.32 6458,103.32 6727.6,121.9 6827.1,152.94 6926.6,187.09 6976.9,249.29 6976.9,339.17 6976.9,435.41 6901.4,513.07 6752.8,565.8 6678.5,593.72 6625.8,618.53 6594.6,643.34 6547.9,680.61 6514.3,835.92 6492.7,1112 6473.6,1388.3 6461.6,1813.6 6461.6,2394.1 6461.6,2918.6 6464,3278.6 6473.6,3471.2 6483.2,3663.5 6495.1,3821.9 6516.7,3939.9 6559.9,4213 6690.5,4430.3 6914.6,4588.5 7137.5,4749.9 7414.3,4830.7 7746.3,4830.7 8189.7,4830.7 8516.9,4709.6 8717,4464.3 8919.6,4219.2 9021.4,3828 9021.4,3288 9021.4,2493.4 9015.4,1869.5 8999.9,1419.3 8984.3,969.31 8962.7,720.99 8935.2,677.49 8911.2,643.34 8833.3,603.07 8705.1,553.33 8578,503.72 8516.9,432.41 8516.9,336.06 8516.9,246.06 8566,184.1 8664.3,149.82 8763.8,115.67 8972.3,100.21 9282.7,100.21 9599.1,100.21 9808.8,118.9 9909.5,149.82 10013,184.1 10063,246.06 10063,336.06 10063,432.41 9987.4,506.83 9842.4,562.68 9768.1,593.72 9714.1,618.53 9684.2,640.34 9636.2,677.49 9602.7,807.88 9581.1,1037.6 9561.9,1267.4 9549.9,1677.1 9549.9,2270 9549.9,2356.7 9549.9,2505.8 9552.3,2713.7 9555.9,2921.8 9555.9,3086.2 9555.9,3204.1 9555.9,3598.3 9532,3905.7 9478,4132.2 9428.9,4358.8 9345,4545.1 9230,4690.9 9062.2,4892.7 8845.3,5047.9 8578,5153.4 8308.4,5258.6 7994.4,5312.1 7633.7,5312.1 6954.1,5312.1 6442.4,5159.6 6098.5,4858.6 5749.7,4554.4 5579.5,4107.5 5579.5,3514.7 5579.5,3427.7 5583.1,3294.1 5585.5,3114.1 5589.1,2934.1 5591.5,2800.6 5591.5,2710.6 Z M 11406,1267.4 C 11404,1335.5 11397,1416.3 11397,1509.4 11394,1602.4 11394,1760.9 11394,1987.4 L 11394,2328.9 C 11394,3368.7 11406,4020.5 11438,4281.2 11465,4545.1 11518,4675.5 11592,4675.5 11658,4675.5 11726,4703.4 11791,4756.1 11857,4812.1 11890,4871 11890,4933 11890,5035.5 11835,5106.9 11723,5150.4 11611,5190.9 11416,5212.7 11137,5212.7 10856,5212.7 10661,5190.9 10549,5150.4 10438,5106.9 10382,5035.5 10382,4933 10382,4843 10444,4771.7 10571,4722.1 10698,4672.3 10774,4632 10794,4600.9 10826,4554.4 10851,4365.1 10869,4026.7 10889,3688.3 10893,3216.6 10893,2611.3 10893,2074.4 10885,1633.6 10866,1285.9 10848,938.27 10823,739.69 10794,696.19 10774,662.03 10698,618.53 10571,565.8 10448,513.07 10382,444.76 10382,354.75 10382,261.63 10436,196.44 10540,159.17 10645,121.9 10848,103.32 11143,103.32 11342,103.32 11471,106.44 11533,115.67 11596,125.13 11640,140.59 11670,165.4 11732,221.25 11899,426.18 12176,786.19 12449,1146.2 12687,1450.5 12886,1698.8 L 13691,2682.7 C 13915,2955.8 14095,3173.1 14238,3340.8 14380,3508.4 14505,3648 14610,3759.7 14614,3716.4 14614,3666.6 14616,3610.8 14616,3554.9 14616,3468 14616,3347 14616,2648.6 14610,2058.8 14595,1577.6 14579,1096.6 14564,814.11 14542,736.45 14532,708.53 14517,683.72 14493,658.92 14468,634.11 14443,615.53 14411,606.06 14281,559.57 14198,516.18 14166,481.91 14132,447.87 14117,404.37 14117,348.52 14117,252.29 14166,187.09 14262,149.82 14360,112.67 14570,93.975 14890,93.975 15182,93.975 15377,112.67 15477,149.82 15573,187.09 15622,252.29 15622,348.52 15622,398.14 15610,438.52 15581,472.68 15553,506.83 15507,534.76 15442,562.68 15426,568.91 15402,578.14 15374,590.6 15271,627.88 15212,674.49 15196,730.22 15169,829.69 15147,1112 15134,1580.7 15122,2046.3 15116,2760.4 15116,3725.6 15116,3924.3 15120,4147.8 15122,4396.1 15126,4644.4 15128,4790.3 15128,4836.9 15128,5016.9 15116,5125.6 15094,5169 15073,5212.7 15029,5234.5 14961,5234.5 14713,5234.5 14166,4703.4 13321,3641.8 13272,3579.7 13235,3533.1 13210,3499 L 12429,2518.2 C 12071,2065 11832,1760.9 11704,1608.7 11580,1456.6 11481,1341.8 11406,1267.4 Z M 16457,2611.3 C 16457,2065 16448,1621.1 16428,1276.6 16410,932.04 16386,736.45 16352,693.07 16329,658.92 16255,615.53 16129,565.8 16004,516.18 15938,441.64 15938,345.41 15938,252.29 15992,187.09 16096,152.94 16203,118.9 16469,100.21 16895,100.21 17316,100.21 17581,118.9 17687,149.82 17791,184.1 17845,249.29 17845,345.41 17845,441.64 17769,519.18 17628,572.03 17552,603.07 17500,627.88 17470,649.57 17422,683.72 17392,820.34 17373,1056.2 17354,1292.2 17345,1680.1 17345,2220.2 17345,2940.4 17354,3505.2 17370,3914.9 17385,4324.7 17407,4554.4 17437,4594.7 17463,4629 17533,4669.2 17662,4718.8 17786,4768.6 17847,4840 17847,4936.2 17847,5041.7 17783,5113.1 17652,5153.4 17521,5194.1 17271,5216 16892,5216 16523,5216 16274,5194.1 16141,5153.4 16008,5113.1 15942,5041.7 15942,4936.2 15942,4840 16016,4765.5 16162,4709.6 16237,4678.6 16289,4653.6 16320,4632 16370,4594.7 16407,4433.4 16426,4150.8 16448,3868.4 16457,3356.2 16457,2608.3 Z M 21075,4439.6 C 21048,4514 21008,4616.5 20955,4746.9 20809,5128.6 20682,5317.6 20576,5317.6 20498,5317.6 20418,5218.1 20330,5020 20309,4970.3 20293,4936.2 20285,4914.4 19986,4287.4 19608,3381 19151,2198.5 18985,1767 18860,1450.5 18775,1242.4 18702,1059.3 18630,916.58 18565,817.23 18499,718 18431,649.57 18357,609.3 18335,596.84 18298,581.38 18242,562.68 18101,516.18 18031,444.76 18031,351.64 18031,255.4 18086,187.09 18198,152.94 18310,118.9 18593,100.21 19048,100.21 19505,100.21 19791,118.9 19899,152.94 20012,190.21 20067,255.4 20067,351.64 20067,444.76 19971,525.41 19778,593.72 L 19756,603.07 C 19700,621.64 19661,649.57 19633,680.61 19608,714.76 19596,755.15 19596,807.88 19596,894.89 19655,1102.8 19772,1434.9 19887,1767 20086,2279.2 20362,2971.3 20480,3263.1 20567,3455.7 20622,3551.8 20676,3648 20721,3697.8 20762,3697.8 20799,3697.8 20840,3657.4 20887,3582.8 20933,3505.2 21014,3328.3 21129,3055.2 21451,2304 21665,1785.6 21771,1497 21880,1211.4 21929,1019 21929,922.81 21929,848.27 21911,786.19 21876,736.45 21843,686.84 21784,643.34 21709,609.3 21689,599.83 21665,590.6 21631,575.14 21492,519.18 21420,444.76 21420,351.64 21420,255.4 21469,187.09 21567,152.94 21663,118.9 21908,100.21 22298,100.21 22677,100.21 22917,118.9 23016,152.94 23116,190.21 23165,255.4 23165,351.64 23165,441.64 23096,519.18 22956,578.14 22888,606.06 22839,634.11 22805,655.8 22637,761.26 22401,1205.2 22095,1987.4 21963,2316.5 21862,2577.2 21781,2766.5 L 21082,4433.4 Z M 24077,5184.3 C 23735,5184.3 23522,5169 23438,5134.8 23350,5100.7 23307,5041.7 23307,4951.7 23307,4846.1 23382,4762.3 23531,4706.5 23606,4678.6 23656,4653.6 23682,4632 23733,4594.7 23770,4427.1 23789,4129.2 23811,3828 23819,3322.1 23819,2611.3 23819,2102.3 23811,1664.6 23789,1304.6 23768,944.38 23742,739.69 23715,696.19 23693,665.03 23618,621.64 23491,568.91 23366,516.18 23301,438.52 23301,342.29 23301,252.29 23358,190.21 23466,156.05 23575,121.9 23832,106.44 24239,106.44 L 26414,106.44 C 26530,106.44 26645,93.975 26766,66.052 26883,41.244 26945,28.781 26952,28.781 26985,28.781 27016,35.012 27042,50.472 27066,62.936 27088,84.628 27103,112.67 27153,196.44 27200,320.6 27243,485.14 27286,649.57 27309,786.19 27309,901.12 27309,1006.6 27290,1087.2 27249,1143.2 27209,1202.2 27153,1230.1 27085,1230.1 27002,1230.1 26915,1149.3 26815,984.77 26771,913.46 26737,860.61 26709,817.23 26659,745.8 26583,689.95 26474,649.57 26368,612.3 26235,590.6 26079,590.6 L 25592,590.6 C 25363,590.6 25189,603.07 25073,627.88 24959,652.8 24877,693.07 24835,752.03 24798,798.65 24766,901.12 24748,1053.1 24729,1208.4 24719,1434.9 24719,1732.8 L 24719,2018.4 C 24719,2133.3 24729,2201.5 24748,2229.5 24766,2257.5 24810,2270 24877,2270 L 25511,2270 C 25701,2270 25835,2241.9 25912,2189.2 25989,2133.3 26036,2033.9 26058,1888 26060,1869.5 26064,1841.5 26073,1804.3 26107,1571.5 26185,1453.5 26306,1453.5 26412,1453.5 26483,1518.7 26520,1645.9 26557,1773.2 26579,2065 26579,2521.3 26579,2974.5 26560,3263.1 26520,3390.5 26483,3517.7 26412,3579.7 26306,3579.7 26185,3579.7 26107,3461.8 26073,3229.1 26070,3194.9 26064,3166.9 26058,3145.2 26036,3002.4 25989,2903.1 25912,2847.1 25837,2791.4 25703,2763.4 25511,2763.4 L 24884,2763.4 C 24819,2763.4 24773,2782.1 24751,2822.3 24729,2862.8 24717,2955.8 24717,3107.9 L 24717,3440 C 24717,3750.5 24723,3977.1 24736,4126 24744,4274.9 24766,4380.5 24798,4445.7 24828,4523.3 24906,4579.2 25027,4613.4 25148,4647.4 25337,4663 25592,4663 L 26052,4663 C 26300,4663 26489,4632 26620,4566.8 26749,4501.6 26862,4386.8 26958,4216 26989,4163.3 27026,4085.7 27066,3980.1 27135,3803.2 27209,3713.2 27293,3713.2 27352,3713.2 27398,3741.2 27436,3800.1 27471,3859.1 27489,3936.6 27489,4039.1 27489,4160.3 27471,4309.2 27434,4483 27396,4656.9 27342,4830.7 27280,5004.4 27243,5091.4 27206,5156.6 27165,5202.9 27126,5249.9 27082,5271.7 27036,5271.7 27026,5271.7 26995,5265.1 26945,5253.1 26790,5209.5 26632,5187.6 26476,5187.6 L 24074,5187.6 Z M 29177,2363 C 29273,2372.3 29364,2378.4 29453,2381.7 29544,2384.7 29627,2387.9 29708,2387.9 30108,2387.9 30403,2313.2 30589,2161.3 30776,2009.2 30872,1770.1 30872,1447.2 30872,1137 30776,904.11 30587,745.8 30397,587.61 30114,506.83 29742,506.83 29560,506.83 29431,519.18 29364,544.11 29295,568.91 29249,612.3 29228,680.61 29211,742.69 29199,845.15 29190,991 29180,1137 29177,1375.9 29177,1704.9 L 29177,2151.9 29177,2366.1 Z M 30813,2645.4 30813,2701.3 C 31067,2747.9 31266,2847.1 31412,3002.4 31554,3160.6 31686,3427.7 31797,3809.5 31822,3896.4 31852,4014.3 31893,4166.5 31984,4532.7 32098,4712.6 32238,4712.6 32254,4712.6 32287,4709.6 32341,4706.5 32390,4703.4 32433,4700.4 32471,4700.4 32514,4700.4 32554,4718.8 32588,4756.1 32625,4793.4 32644,4833.8 32644,4883.5 32644,4995.2 32576,5085.2 32442,5156.6 32305,5227.9 32129,5261.9 31906,5261.9 31436,5261.9 31096,4902.1 30887,4181.9 30884,4172.6 30881,4163.3 30881,4157 30714,3589.1 30546,3225.8 30375,3073.8 30208,2921.8 29956,2847.1 29623,2847.1 L 29304,2847.1 C 29249,2847.1 29211,2862.8 29192,2893.8 29174,2924.8 29165,3005.6 29165,3139 L 29165,3278.6 C 29165,3818.7 29174,4172.6 29190,4337.1 29208,4504.8 29240,4604 29283,4635.2 29310,4659.9 29364,4684.7 29439,4709.6 29584,4762.3 29655,4836.9 29655,4933 29655,5038.6 29590,5110 29460,5150.4 29328,5190.9 29078,5212.7 28699,5212.7 28330,5212.7 28082,5190.9 27949,5150.4 27815,5110 27750,5038.6 27750,4933 27750,4836.9 27824,4762.3 27969,4706.5 28045,4675.5 28097,4650.7 28127,4629 28178,4591.7 28215,4430.3 28233,4147.8 28256,3865.2 28264,3353.2 28264,2605 28264,2058.8 28256,1614.9 28237,1270.4 28219,925.81 28193,730.22 28159,686.84 28135,652.8 28060,609.3 27936,559.57 27811,506.83 27750,435.41 27750,348.52 27750,261.63 27787,199.56 27854,159.17 27926,118.9 28038,97.091 28186,97.091 L 28963,97.091 C 29150,97.091 29386,90.859 29673,81.631 29962,69.168 30152,62.936 30251,62.936 30766,62.936 31159,174.63 31434,395.02 31707,615.53 31840,935.15 31840,1354.1 31840,1664.6 31750,1934.6 31571,2161.3 31391,2387.9 31136,2549.2 30810,2645.4 Z M 35577,159.17 C 35633,115.67 35680,84.628 35723,66.052 35767,47.476 35807,38.128 35842,38.128 35897,38.128 35950,56.704 35996,90.859 36043,128.13 36090,190.21 36140,280.21 36220,426.18 36282,575.14 36328,727.23 36375,882.42 36398,1019 36398,1137 36398,1217.6 36377,1279.7 36340,1323.1 36303,1366.6 36252,1388.3 36186,1388.3 36062,1388.3 35938,1304.6 35820,1133.7 35797,1105.9 35783,1084.2 35770,1065.5 35637,888.65 35491,758.27 35335,674.49 35177,590.6 34999,550.34 34804,550.34 34538,550.34 34327,612.3 34174,733.46 34023,857.62 33948,1025.3 33948,1242.4 33948,1431.8 34011,1593.2 34136,1720.4 34261,1850.8 34581,2021.7 35090,2238.8 35120,2254.3 35171,2276.1 35239,2304 35662,2480.9 35965,2654.8 36155,2825.4 36285,2943.5 36381,3083.1 36449,3244.5 36518,3406 36552,3579.7 36552,3766 36552,4250.1 36385,4625.7 36045,4895.9 35709,5165.9 35239,5302.2 34634,5302.2 34349,5302.2 34075,5274.9 33815,5216 33554,5156.6 33339,5079 33172,4982.7 33078,4926.8 33001,4799.6 32939,4594.7 32877,4393 32846,4157 32846,3890.1 32846,3781.5 32868,3697.8 32908,3641.8 32949,3586 33007,3558 33085,3558 33197,3558 33308,3663.5 33426,3874.7 33463,3939.9 33492,3992.6 33510,4023.6 33659,4287.4 33824,4479.9 34001,4597.9 34177,4718.8 34389,4777.8 34630,4777.8 34899,4777.8 35118,4703.4 35298,4551.3 35475,4399.1 35565,4209.9 35565,3986.4 35565,3654.3 35211,3337.7 34507,3030.3 34460,3008.6 34423,2993.1 34395,2983.8 33820,2732.4 33442,2499.6 33252,2288.5 33064,2077.4 32970,1807.4 32970,1475.3 32970,1050 33129,702.3 33439,429.18 33753,156.05 34159,19.433 34659,19.433 34788,19.433 34932,31.897 35083,56.704 35233,81.631 35397,118.9 35571,165.4 Z M 37468,2608.3 C 37468,2061.9 37458,1618.1 37440,1273.5 37421,928.92 37396,733.46 37363,689.95 37341,655.8 37265,612.3 37138,562.68 37014,513.07 36950,438.52 36950,342.29 36950,249.29 37002,184.1 37107,149.82 37213,115.67 37481,97.091 37905,97.091 38328,97.091 38591,115.67 38698,146.82 38802,180.86 38856,246.06 38856,342.29 38856,438.52 38782,516.18 38638,568.91 38565,599.83 38511,624.76 38480,646.57 38433,680.61 38403,817.23 38384,1053.1 38366,1289.1 38355,1677.1 38355,2217.1 38355,2937.3 38366,3502.2 38380,3911.9 38396,4321.6 38417,4551.3 38448,4591.7 38474,4625.7 38544,4666.1 38672,4715.8 38797,4765.5 38859,4836.9 38859,4933 38859,5038.6 38793,5110 38663,5150.4 38532,5190.9 38281,5212.7 37902,5212.7 37533,5212.7 37285,5190.9 37150,5150.4 37017,5110 36953,5038.6 36953,4933 36953,4836.9 37027,4762.3 37173,4706.5 37248,4675.5 37300,4650.7 37331,4629 37382,4591.7 37419,4430.3 37437,4147.8 37458,3865.2 37470,3353.2 37470,2605 Z M 42378,97.091 C 42663,97.091 42903,81.631 43092,53.708 43115,50.472 43127,50.472 43129,50.472 43244,50.472 43340,146.82 43411,336.06 43487,525.41 43520,776.96 43520,1087.2 43520,1230.1 43506,1332.4 43471,1397.6 43436,1462.8 43385,1494 43310,1494 43270,1494 43229,1478.3 43188,1453.5 43149,1425.6 43116,1388.3 43090,1341.8 43061,1289.1 43028,1208.4 42983,1099.7 42940,987.88 42903,910.35 42872,866.84 42807,773.72 42729,708.53 42636,668.26 42543,630.99 42413,609.3 42251,609.3 L 42106,609.3 C 42009,609.3 41941,618.53 41900,640.34 41860,662.03 41835,705.53 41826,770.73 41814,882.42 41804,1071.8 41798,1338.7 41788,1605.7 41786,1913 41786,2270 41786,3002.4 41792,3564.2 41808,3955.3 41820,4343.4 41841,4560.5 41866,4600.9 41891,4635.2 41969,4675.5 42095,4725.1 42223,4774.8 42286,4846.1 42286,4942.5 42286,5047.9 42217,5119.4 42083,5159.6 41950,5199.7 41698,5221.5 41332,5221.5 40963,5221.5 40715,5199.7 40582,5159.6 40447,5119.4 40383,5047.9 40383,4942.5 40383,4846.1 40447,4774.8 40574,4725.1 40703,4675.5 40779,4635.2 40802,4600.9 40830,4560.5 40849,4346.4 40864,3955.3 40879,3564.2 40886,3005.6 40886,2270 40886,1916 40882,1605.7 40873,1335.5 40864,1068.5 40854,876.19 40842,767.49 40836,702.3 40810,662.03 40770,640.34 40730,621.64 40662,609.3 40566,609.3 L 40408,609.3 C 40246,609.3 40121,627.88 40028,668.26 39939,705.53 39861,773.72 39793,866.84 39762,913.46 39725,991 39682,1099.7 39637,1208.4 39604,1289.1 39578,1341.8 39550,1388.3 39516,1425.6 39475,1453.5 39432,1481.5 39392,1497 39350,1497 39274,1497 39225,1465.9 39194,1403.9 39163,1341.8 39147,1236.2 39147,1093.5 39147,783.07 39184,531.64 39255,342.29 39327,152.94 39420,56.704 39535,56.704 39541,56.704 39553,56.704 39575,59.94 39762,87.743 39998,103.32 40283,103.32 L 42376,103.32 Z M 46230,3111 C 46106,2760.4 45982,2434.4 45861,2133.3 45740,1832.2 45619,1555.9 45501,1301.4 L 45408,1301.4 C 45283,1593.2 45160,1888 45042,2189.2 44921,2490.2 44806,2800.6 44690,3117.3 44822,3107.9 44947,3101.7 45076,3098.7 45203,3095.4 45337,3092.5 45474,3092.5 45599,3092.5 45728,3092.5 45855,3095.4 45982,3098.7 46106,3104.9 46230,3111 Z M 44455,2378.4 C 44482,2304 44523,2201.5 44582,2065 44923,1220.7 45132,621.64 45216,264.75 45237,156.05 45275,84.628 45324,56.704 45374,28.781 45466,13.201 45597,13.201 45684,13.201 45755,28.781 45806,59.94 45855,90.859 45905,152.94 45954,243.06 46091,509.95 46271,901.12 46497,1416.3 46724,1934.6 46956,2493.4 47192,3095.4 47233,3194.9 47289,3334.5 47360,3514.7 47627,4200.5 47838,4585.5 47997,4669.2 48021,4684.7 48061,4700.4 48121,4715.8 48269,4762.3 48344,4830.7 48344,4926.8 48344,5035.5 48273,5110 48130,5150.4 47987,5190.9 47704,5212.7 47283,5212.7 46866,5212.7 46587,5190.9 46448,5150.4 46308,5110 46239,5035.5 46239,4926.8 46239,4840 46324,4765.5 46495,4706.5 46520,4697.2 46538,4690.9 46550,4684.7 46616,4659.9 46661,4635.2 46690,4600.9 46715,4570 46727,4523.3 46727,4467.5 46727,4405.3 46708,4306.1 46674,4169.5 46637,4036.1 46594,3911.9 46541,3797 46513,3741.2 46491,3703.9 46475,3691.5 46460,3676 46444,3666.6 46425,3663.5 46380,3651.2 46286,3644.9 46143,3635.6 46001,3629.3 45820,3626.4 45603,3626.4 L 45429,3626.4 C 45072,3626.4 44836,3632.6 44719,3648 44601,3663.5 44527,3688.3 44492,3725.6 44436,3787.8 44383,3887 44331,4023.6 44278,4160.3 44254,4274.9 44254,4358.8 44254,4430.3 44272,4492.3 44306,4545.1 44340,4594.7 44395,4638.2 44468,4666.1 44498,4678.6 44539,4697.2 44590,4712.6 44738,4762.3 44812,4836.9 44812,4930 44812,5038.6 44750,5113.1 44631,5153.4 44511,5194.1 44272,5216 43912,5216 43551,5216 43310,5194.1 43192,5153.4 43071,5113.1 43012,5038.6 43012,4930 43012,4840 43083,4765.5 43223,4709.6 43282,4684.7 43328,4663 43360,4644.4 43539,4535.7 43706,4278.2 43863,3871.4 43896,3781.5 43924,3713.2 43946,3660.4 L 44455,2381.7 Z M 51163,159.17 C 51219,115.67 51266,84.628 51308,66.052 51352,47.476 51391,38.128 51426,38.128 51482,38.128 51535,56.704 51582,90.859 51627,128.13 51674,190.21 51723,280.21 51805,426.18 51867,575.14 51914,727.23 51959,882.42 51985,1019 51985,1137 51985,1217.6 51967,1279.7 51930,1323.1 51892,1366.6 51838,1388.3 51774,1388.3 51650,1388.3 51526,1304.6 51407,1133.7 51387,1105.9 51370,1084.2 51358,1065.5 51225,888.65 51079,758.27 50924,674.49 50765,590.6 50588,550.34 50393,550.34 50125,550.34 49915,612.3 49763,733.46 49611,857.62 49535,1025.3 49535,1242.4 49535,1431.8 49597,1593.2 49726,1720.4 49850,1850.8 50169,2021.7 50678,2238.8 50710,2254.3 50759,2276.1 50827,2304 51249,2480.9 51553,2654.8 51743,2825.4 51873,2943.5 51970,3083.1 52037,3244.5 52106,3406 52140,3579.7 52140,3766 52140,4250.1 51973,4625.7 51635,4895.9 51296,5165.9 50827,5302.2 50223,5302.2 49937,5302.2 49663,5274.9 49402,5216 49141,5156.6 48927,5079 48760,4982.7 48667,4926.8 48589,4799.6 48527,4594.7 48465,4393 48434,4157 48434,3890.1 48434,3781.5 48455,3697.8 48496,3641.8 48537,3586 48595,3558 48673,3558 48785,3558 48896,3663.5 49015,3874.7 49052,3939.9 49080,3992.6 49099,4023.6 49247,4287.4 49412,4479.9 49589,4597.9 49766,4718.8 49977,4777.8 50219,4777.8 50485,4777.8 50706,4703.4 50887,4551.3 51063,4399.1 51153,4209.9 51153,3986.4 51153,3654.3 50799,3337.7 50095,3030.3 50048,3008.6 50011,2993.1 49983,2983.8 49409,2732.4 49030,2499.6 48841,2288.5 48651,2077.4 48558,1807.4 48558,1475.3 48558,1050 48717,702.3 49027,429.18 49340,156.05 49747,19.433 50247,19.433 50378,19.433 50519,31.897 50672,56.704 50821,81.631 50986,118.9 51159,165.4 Z"
   inkscape:connector-curvature="0" />
</svg>